<?xml version="1.0" encoding="utf-8"?>
<!-- Generator: Adobe Illustrator 28.2.0, SVG Export Plug-In . SVG Version: 6.00 Build 0)  -->
<svg version="1.1" id="Layer_1" xmlns="http://www.w3.org/2000/svg" xmlns:xlink="http://www.w3.org/1999/xlink" x="0px" y="0px"
	 viewBox="0 0 144 43" style="enable-background:new 0 0 144 43;" xml:space="preserve">
<style type="text/css">
	.st0{fill-rule:evenodd;clip-rule:evenodd;fill:#FFFFFF;}
</style>
<g>
	<g>
		<path class="st0" d="M30.5,14.5l-17.8,6.8l2.7,7c0.5,1.3,1.7,2.1,3,2.1l3,0l-2.4-6.2l3.2-1.2c0.1,0,0.1,0,0.2,0
			c0.2,0,0.4,0.1,0.5,0.3l1.8,4.5c0.5,1.3,1.8,2.2,3.2,2.2l2.9,0L27.3,21l3.1-1.2c0.1,0,0.1,0,0.2,0c0.3,0,0.5,0.2,0.6,0.4L37.7,37
			l5.4,0l-7.8-20.4c-0.5-1.4-1.9-2.4-3.4-2.4C31.4,14.3,31,14.4,30.5,14.5L30.5,14.5z"/>
		<path class="st0" d="M32.2,9.2l-23.8,9l-1.7-4.6l19.3-7.3C26.4,6.1,27,6,27.6,6C29.6,6,31.4,7.3,32.2,9.2L32.2,9.2z"/>
		<path class="st0" d="M35.6,37l-0.4-1.1c-0.8-2.2-3-3.7-5.3-3.7l-14.6-0.1c-0.5,0-0.9-0.3-1.1-0.7l-6.9-18l-4.6,1.8L11.1,37l0,0v0
			L35.6,37z"/>
	</g>
	<g>
		<path class="st0" d="M115.6,25.4c0,0.2-0.1,0.3-0.3,0.3l-1,0c-0.2,0-0.3-0.1-0.3-0.3v-4.6c0,0-0.2,0.8-0.4,1.1l-0.9,2.3
			c-0.1,0.2-0.2,0.3-0.4,0.3l-0.9,0c-0.2,0-0.3-0.1-0.4-0.3l-1-2.5c-0.1-0.3-0.2-0.6-0.3-0.9v4.6c0,0.2-0.1,0.3-0.3,0.3l-1,0
			c-0.2,0-0.3-0.1-0.3-0.3v-7.7c0-0.2,0.1-0.3,0.3-0.3l1,0c0,0,0,0,0,0c0.1,0,0.2,0.1,0.2,0.2l1.9,4.3c0.1,0.3,0.3,0.9,0.3,0.9
			s0.2-0.5,0.3-0.8l1.8-4.3c0-0.1,0.1-0.1,0.3-0.1l1,0c0.2,0,0.3,0.1,0.3,0.3V25.4z"/>
		<path class="st0" d="M47.7,17.3c-0.2,0-0.3,0.1-0.3,0.3l1,7.7c0,0.2,0.1,0.3,0.3,0.3h4.2c0.2,0,0.3-0.1,0.3-0.3l-0.1-0.8
			c0,0,0,0,0,0c0-0.2-0.1-0.3-0.3-0.3c0,0,0,0,0,0l-2.8,0l-0.2-2h2.6c0.2,0,0.3-0.1,0.3-0.3l-0.1-0.7c0-0.2-0.1-0.3-0.3-0.3l-2.6,0
			l-0.3-2.3h3c0.2,0,0.3-0.1,0.3-0.3l-0.1-0.8c0-0.2-0.1-0.3-0.3-0.3L47.7,17.3z"/>
		<path class="st0" d="M60,25.3c0.1,0.1,0.1,0.3-0.2,0.3h-1.2c-0.2,0-0.3-0.1-0.4-0.3l-1.5-2.5l-1.3,2.5c-0.1,0.2-0.2,0.3-0.4,0.3
			l-1.1,0c-0.2,0-0.2-0.2-0.1-0.4l2.2-3.9l-2.1-3.7c-0.1-0.2-0.1-0.3,0.1-0.3h1.2c0.2,0,0.3,0.1,0.5,0.3l1.4,2.3l1.3-2.3
			c0.1-0.2,0.2-0.3,0.4-0.3l1.1,0c0.2,0,0.2,0.1,0.1,0.3l-2.2,3.7L60,25.3z"/>
		<path class="st0" d="M66.6,23.8c0,1-0.7,2-2.9,2c-2.2,0-2.9-1-2.9-2l0-4.5c0-1,0.7-2,2.9-2c2.2,0,2.9,1,2.9,2l0,0.6
			c0,0.2-0.1,0.3-0.3,0.3l-1,0c-0.2,0-0.3-0.1-0.3-0.3v-0.3c0-0.6-0.4-0.9-1.2-0.9c-0.8,0-1.2,0.3-1.2,0.9v3.9
			c0,0.6,0.4,0.9,1.2,0.9c0.8,0,1.2-0.3,1.2-0.9V23c0-0.2,0.1-0.3,0.3-0.3l1,0c0.2,0,0.3,0.1,0.3,0.3V23.8z"/>
		<path class="st0" d="M68.2,25.7c-0.2,0-0.3-0.1-0.3-0.3v-7.7c0-0.2,0.1-0.3,0.3-0.3h4.2c0.2,0,0.3,0.1,0.3,0.3v0.8
			c0,0.2-0.1,0.3-0.3,0.3l-2.8,0v2h2.6c0.2,0,0.3,0.1,0.3,0.3v0.7c0,0.2-0.1,0.3-0.3,0.3l-2.6,0v2.3l2.9,0c0.2,0,0.3,0.1,0.3,0.3
			v0.8c0,0.2-0.1,0.3-0.3,0.3H68.2z"/>
		<path class="st0" d="M75.8,24.3h2.7c0.2,0,0.3,0.1,0.3,0.3v0.8c0,0.2-0.1,0.3-0.3,0.3h-4.1c-0.2,0-0.3-0.1-0.3-0.3v-7.7
			c0-0.2,0.1-0.3,0.3-0.3h1.1c0.2,0,0.3,0.1,0.3,0.3V24.3z"/>
		<path class="st0" d="M81.7,24.3h2.7c0.2,0,0.3,0.1,0.3,0.3v0.8c0,0.2-0.1,0.3-0.3,0.3h-4.1c-0.2,0-0.3-0.1-0.3-0.3v-7.7
			c0-0.2,0.1-0.3,0.3-0.3h1.1c0.2,0,0.3,0.1,0.3,0.3V24.3z"/>
		<path class="st0" d="M86.1,25.7c-0.2,0-0.3-0.1-0.3-0.3v-7.7c0-0.2,0.1-0.3,0.3-0.3h4.2c0.2,0,0.3,0.1,0.3,0.3v0.8
			c0,0.2-0.1,0.3-0.3,0.3l-2.8,0v2h2.6c0.2,0,0.3,0.1,0.3,0.3v0.7c0,0.2-0.1,0.3-0.3,0.3l-2.6,0v2.3l2.9,0c0.2,0,0.3,0.1,0.3,0.3
			v0.8c0,0.2-0.1,0.3-0.3,0.3H86.1z"/>
		<path class="st0" d="M98,25.3c0,0.2-0.1,0.3-0.3,0.3h-1c0,0,0,0,0,0c-0.1,0-0.2-0.1-0.2-0.2l-2.4-4c-0.2-0.3-0.4-0.6-0.5-1v4.9
			c0,0.2-0.1,0.3-0.3,0.3l-1,0c-0.2,0-0.3-0.1-0.3-0.3v-7.7c0-0.2,0.1-0.3,0.3-0.3h1c0,0,0,0,0,0c0.1,0,0.2,0,0.2,0.1l2.5,4.2
			c0.2,0.3,0.3,0.6,0.4,0.9l0-4.9c0-0.2,0.1-0.3,0.3-0.3h1c0.2,0,0.3,0.1,0.3,0.3L98,25.3z"/>
		<path class="st0" d="M104.4,17.3c0.2,0,0.3,0.1,0.3,0.3v0.8c0,0.2-0.1,0.3-0.3,0.3l-1.7,0v6.6c0,0.2-0.1,0.3-0.3,0.3h-1.1
			c-0.2,0-0.3-0.1-0.3-0.3v-6.6h-1.7c-0.2,0-0.3-0.1-0.3-0.3l0-0.8c0-0.2,0.1-0.3,0.3-0.3H104.4z"/>
		<path class="st0" d="M118.9,25.3c0,0.2-0.1,0.3-0.3,0.3h-1.1c-0.2,0-0.3-0.1-0.3-0.3v-7.7c0-0.2,0.1-0.3,0.3-0.3h1.1
			c0.2,0,0.3,0.1,0.3,0.3V25.3z"/>
		<path class="st0" d="M126.5,25.3c0,0.2-0.1,0.3-0.3,0.3h-1c0,0,0,0,0,0c-0.1,0-0.2-0.1-0.2-0.2l-2.4-4c-0.2-0.3-0.4-0.6-0.5-1v4.9
			c0,0.2-0.1,0.3-0.3,0.3l-1,0c-0.2,0-0.3-0.1-0.3-0.3v-7.7c0-0.2,0.1-0.3,0.3-0.3h1c0,0,0,0,0,0c0.1,0,0.2,0,0.2,0.1l2.5,4.2
			c0.2,0.3,0.3,0.6,0.4,0.9l0-4.9c0-0.2,0.1-0.3,0.3-0.3h1c0.2,0,0.3,0.1,0.3,0.3L126.5,25.3z"/>
		<path class="st0" d="M128.4,25.7c-0.2,0-0.3-0.1-0.3-0.3v-7.7c0-0.2,0.1-0.3,0.3-0.3h2.7c2.2,0,3,1,3,2v4.3c0,1-0.8,2-3,2
			L128.4,25.7L128.4,25.7z M129.8,18.7v5.6h1.3c0.8,0,1.3-0.3,1.3-0.9l0-3.7c0-0.6-0.5-0.9-1.3-0.9L129.8,18.7z"/>
		<path class="st0" d="M139.6,19.5c0-0.6-0.4-0.9-1.2-0.9c-0.8,0-1.2,0.3-1.2,0.9v0.2c0,0,0,0,0,0c0,0.3,0.2,0.6,0.5,0.7l2.1,0.8
			c0.8,0.3,1.4,0.9,1.4,1.8v0.9c0,1-0.7,2-2.9,2c-2.2,0-2.9-1-2.9-2V23c0-0.2,0.1-0.3,0.3-0.3h1c0.2,0,0.3,0.1,0.3,0.3v0.5
			c0,0.6,0.5,0.9,1.3,0.9c0.8,0,1.3-0.3,1.3-0.9v-0.4c0-0.5-0.5-0.7-1-0.9l-1.9-0.7c-0.7-0.3-1.1-0.9-1.1-1.6v-0.7c0-1,0.6-2,2.8-2
			c2.1,0,2.8,1,2.8,2v0.5c0,0.2-0.1,0.3-0.3,0.3l-1,0c-0.2,0-0.3-0.1-0.3-0.3L139.6,19.5z"/>
	</g>
</g>
</svg>
